<?xml version="1.0" encoding="UTF-8"?>
<!DOCTYPE svg PUBLIC "-//W3C//DTD SVG 1.1//EN" "http://www.w3.org/Graphics/SVG/1.1/DTD/svg11.dtd">
<svg version="1.1" xmlns="http://www.w3.org/2000/svg" xmlns:xlink="http://www.w3.org/1999/xlink" x="0" y="0" width="299.301" height="34.752" viewBox="0, 0, 299.301, 34.752">
  <g id="Layer_1" transform="translate(-76.541, -152.824)">
    <path d="M82.43,156.164 L88.477,171.562 L94.541,155.9 L100.658,171.492 L106.564,156.164 L110.467,156.164 L101.098,180.352 L98.443,180.352 L93.557,167.924 L88.758,180.352 L86.104,180.352 L76.541,156.164 z" fill="#FFFFFF"/>
    <path d="M127.051,180.334 Q124.906,180.334 123.087,179.631 Q121.268,178.928 119.94,177.697 Q118.613,176.467 117.866,174.806 Q117.119,173.145 117.119,171.211 Q117.119,169.137 117.866,167.388 Q118.613,165.639 119.932,164.373 Q121.25,163.107 123.069,162.396 Q124.889,161.684 127.033,161.684 Q129.178,161.684 131.006,162.378 Q132.834,163.072 134.161,164.285 Q135.488,165.498 136.244,167.142 Q137,168.785 137,170.684 Q137,172.67 136.253,174.428 Q135.506,176.186 134.179,177.495 Q132.852,178.805 131.023,179.569 Q129.195,180.334 127.051,180.334 z M127.684,178.137 Q128.422,178.137 129.055,177.653 Q129.688,177.17 130.153,176.353 Q130.619,175.535 130.874,174.463 Q131.129,173.391 131.129,172.23 Q131.129,170.508 130.874,168.987 Q130.619,167.467 130.039,166.324 Q129.459,165.182 128.536,164.514 Q127.613,163.846 126.277,163.846 Q125.627,163.846 125.029,164.32 Q124.432,164.795 123.975,165.595 Q123.518,166.395 123.245,167.44 Q122.973,168.486 122.973,169.646 Q122.973,171.387 123.298,172.934 Q123.623,174.48 124.229,175.632 Q124.836,176.783 125.706,177.46 Q126.576,178.137 127.684,178.137 z" fill="#FFFFFF"/>
    <path d="M157.855,165.779 Q157.486,165.463 157.179,165.234 Q156.871,165.006 156.572,164.865 Q156.273,164.725 155.948,164.663 Q155.623,164.602 155.219,164.602 Q154.656,164.602 154.111,164.786 Q153.566,164.971 153.092,165.296 Q152.617,165.621 152.239,166.052 Q151.861,166.482 151.65,166.975 L151.65,180 L146.201,180 L146.201,163.635 L150.016,161.631 L151.65,163.389 Q152.547,162.457 153.646,161.895 Q154.744,161.332 155.957,161.332 Q157.135,161.332 158.084,161.815 Q159.033,162.299 159.736,162.879 z" fill="#FFFFFF"/>
    <path d="M172.119,168.17 L179.186,162 L183.123,162 L175.248,168.891 L184.811,180 L178.359,180 L172.119,172.775 L172.119,180 L166.635,180 L166.635,154.828 L170.484,152.824 L172.119,152.824 z" fill="#FFFFFF"/>
    <path d="M193.801,174.973 Q194.275,176.449 195.163,177.267 Q196.051,178.084 197.387,178.084 Q197.949,178.084 198.415,177.943 Q198.881,177.803 199.224,177.548 Q199.566,177.293 199.751,176.959 Q199.936,176.625 199.936,176.238 Q199.936,175.605 199.698,175.104 Q199.461,174.604 199.039,174.199 Q198.617,173.795 198.037,173.452 Q197.457,173.109 196.789,172.811 Q195.717,172.336 194.662,171.782 Q193.607,171.229 192.764,170.517 Q191.92,169.805 191.401,168.891 Q190.883,167.977 190.883,166.781 Q190.883,165.639 191.357,164.698 Q191.832,163.758 192.693,163.09 Q193.555,162.422 194.75,162.053 Q195.945,161.684 197.387,161.684 Q198.705,161.684 199.725,161.93 Q200.744,162.176 201.518,162.633 Q202.291,163.09 202.889,163.749 Q203.486,164.408 203.961,165.234 L200.797,166.324 Q200.551,165.463 200.199,164.988 Q199.848,164.514 199.461,164.276 Q199.074,164.039 198.705,163.986 Q198.336,163.934 198.055,163.934 Q197.545,163.934 197.088,164.048 Q196.631,164.162 196.279,164.373 Q195.928,164.584 195.717,164.892 Q195.506,165.199 195.506,165.604 Q195.506,166.113 195.77,166.57 Q196.033,167.027 196.508,167.423 Q196.982,167.818 197.624,168.17 Q198.266,168.521 199.021,168.838 Q200.164,169.312 201.245,169.893 Q202.326,170.473 203.17,171.202 Q204.014,171.932 204.523,172.819 Q205.033,173.707 205.033,174.797 Q205.033,175.975 204.646,176.994 Q204.26,178.014 203.39,178.77 Q202.52,179.525 201.14,179.965 Q199.76,180.404 197.791,180.404 Q196.104,180.404 194.935,180.018 Q193.766,179.631 192.957,179.024 Q192.148,178.418 191.621,177.662 Q191.094,176.906 190.689,176.168 z" fill="#FFFFFF"/>
    <path d="M225.027,167.713 Q225.027,166.324 224.579,165.595 Q224.131,164.865 223.41,164.865 Q223.094,164.865 222.61,165.006 Q222.127,165.146 221.582,165.41 Q221.037,165.674 220.483,166.025 Q219.93,166.377 219.455,166.799 L219.455,180 L213.936,180 L213.936,154.828 L217.82,152.824 L219.455,152.824 L219.455,163.459 Q220.703,162.545 222.241,162.097 Q223.779,161.648 225.256,161.648 Q226.346,161.648 227.304,162.079 Q228.262,162.51 228.974,163.257 Q229.686,164.004 230.099,165.006 Q230.512,166.008 230.512,167.133 L230.512,180 L225.027,180 z" fill="#FFFFFF"/>
    <path d="M249.504,180.334 Q247.359,180.334 245.54,179.631 Q243.721,178.928 242.394,177.697 Q241.066,176.467 240.319,174.806 Q239.572,173.145 239.572,171.211 Q239.572,169.137 240.319,167.388 Q241.066,165.639 242.385,164.373 Q243.703,163.107 245.522,162.396 Q247.342,161.684 249.486,161.684 Q251.631,161.684 253.459,162.378 Q255.287,163.072 256.614,164.285 Q257.941,165.498 258.697,167.142 Q259.453,168.785 259.453,170.684 Q259.453,172.67 258.706,174.428 Q257.959,176.186 256.632,177.495 Q255.305,178.805 253.477,179.569 Q251.648,180.334 249.504,180.334 z M250.137,178.137 Q250.875,178.137 251.508,177.653 Q252.141,177.17 252.606,176.353 Q253.072,175.535 253.327,174.463 Q253.582,173.391 253.582,172.23 Q253.582,170.508 253.327,168.987 Q253.072,167.467 252.492,166.324 Q251.912,165.182 250.989,164.514 Q250.066,163.846 248.73,163.846 Q248.08,163.846 247.482,164.32 Q246.885,164.795 246.428,165.595 Q245.971,166.395 245.698,167.44 Q245.426,168.486 245.426,169.646 Q245.426,171.387 245.751,172.934 Q246.076,174.48 246.683,175.632 Q247.289,176.783 248.159,177.46 Q249.029,178.137 250.137,178.137 z" fill="#FFFFFF"/>
    <path d="M268.479,163.635 L272.328,161.631 L273.963,161.631 L273.963,163.459 Q274.895,162.668 276.116,162.176 Q277.338,161.684 278.955,161.684 Q280.678,161.684 282.084,162.36 Q283.49,163.037 284.492,164.188 Q285.494,165.34 286.039,166.869 Q286.584,168.398 286.584,170.121 Q286.584,172.336 285.934,174.208 Q285.283,176.08 284.088,177.442 Q282.893,178.805 281.188,179.569 Q279.482,180.334 277.355,180.334 Q276.266,180.334 275.483,180.246 Q274.701,180.158 273.963,179.859 L273.963,187.576 L268.479,187.576 z M273.963,175.008 Q273.963,175.658 274.209,176.229 Q274.455,176.801 274.895,177.223 Q275.334,177.645 275.958,177.891 Q276.582,178.137 277.355,178.137 Q278.041,178.137 278.665,177.671 Q279.289,177.205 279.755,176.37 Q280.221,175.535 280.493,174.393 Q280.766,173.25 280.766,171.896 Q280.766,170.156 280.52,168.838 Q280.273,167.52 279.834,166.641 Q279.395,165.762 278.788,165.313 Q278.182,164.865 277.479,164.865 Q276.969,164.865 276.477,165.041 Q275.984,165.217 275.536,165.524 Q275.088,165.832 274.692,166.236 Q274.297,166.641 273.963,167.098 z" fill="#FFFFFF"/>
    <path d="M295.768,163.635 L299.617,161.631 L301.252,161.631 L301.252,163.459 Q302.184,162.668 303.405,162.176 Q304.627,161.684 306.244,161.684 Q307.967,161.684 309.373,162.36 Q310.779,163.037 311.781,164.188 Q312.783,165.34 313.328,166.869 Q313.873,168.398 313.873,170.121 Q313.873,172.336 313.223,174.208 Q312.572,176.08 311.377,177.442 Q310.182,178.805 308.477,179.569 Q306.771,180.334 304.645,180.334 Q303.555,180.334 302.772,180.246 Q301.99,180.158 301.252,179.859 L301.252,187.576 L295.768,187.576 z M301.252,175.008 Q301.252,175.658 301.498,176.229 Q301.744,176.801 302.184,177.223 Q302.623,177.645 303.247,177.891 Q303.871,178.137 304.645,178.137 Q305.33,178.137 305.954,177.671 Q306.578,177.205 307.044,176.37 Q307.51,175.535 307.782,174.393 Q308.055,173.25 308.055,171.896 Q308.055,170.156 307.809,168.838 Q307.562,167.52 307.123,166.641 Q306.684,165.762 306.077,165.313 Q305.471,164.865 304.768,164.865 Q304.258,164.865 303.766,165.041 Q303.273,165.217 302.825,165.524 Q302.377,165.832 301.981,166.236 Q301.586,166.641 301.252,167.098 z" fill="#FFFFFF"/>
    <path d="M331.143,180.404 Q329.227,180.404 327.539,179.692 Q325.852,178.98 324.604,177.776 Q323.355,176.572 322.626,174.981 Q321.896,173.391 321.896,171.615 Q321.896,169.488 322.564,167.669 Q323.232,165.85 324.463,164.514 Q325.693,163.178 327.407,162.431 Q329.121,161.684 331.23,161.684 Q333.111,161.684 334.676,162.281 Q336.24,162.879 337.356,163.916 Q338.473,164.953 339.088,166.359 Q339.703,167.766 339.703,169.365 L327.24,169.365 Q327.311,170.859 327.688,172.213 Q328.066,173.566 328.699,174.595 Q329.332,175.623 330.185,176.229 Q331.037,176.836 332.074,176.836 Q332.971,176.836 333.841,176.528 Q334.711,176.221 335.449,175.685 Q336.188,175.148 336.732,174.437 Q337.277,173.725 337.523,172.898 L340.301,173.338 Q339.879,174.797 338.956,176.08 Q338.033,177.363 336.794,178.33 Q335.555,179.297 334.096,179.851 Q332.637,180.404 331.143,180.404 z M333.445,167.502 Q333.375,166.711 333.103,166.052 Q332.83,165.393 332.408,164.918 Q331.986,164.443 331.424,164.188 Q330.861,163.934 330.211,163.934 Q329.701,163.934 329.209,164.188 Q328.717,164.443 328.321,164.909 Q327.926,165.375 327.653,166.034 Q327.381,166.693 327.293,167.502 z" fill="#FFFFFF"/>
    <path d="M361.121,165.779 Q360.752,165.463 360.444,165.234 Q360.137,165.006 359.838,164.865 Q359.539,164.725 359.214,164.663 Q358.889,164.602 358.484,164.602 Q357.922,164.602 357.377,164.786 Q356.832,164.971 356.357,165.296 Q355.883,165.621 355.505,166.052 Q355.127,166.482 354.916,166.975 L354.916,180 L349.467,180 L349.467,163.635 L353.281,161.631 L354.916,163.389 Q355.812,162.457 356.911,161.895 Q358.01,161.332 359.223,161.332 Q360.4,161.332 361.35,161.815 Q362.299,162.299 363.002,162.879 z" fill="#FFFFFF"/>
    <path d="M372.08,173.689 Q371.816,171.404 371.57,169.796 Q371.324,168.188 371.104,167.01 Q370.885,165.832 370.691,164.988 Q370.498,164.145 370.366,163.397 Q370.234,162.65 370.155,161.877 Q370.076,161.104 370.076,160.066 Q370.076,159.135 370.322,158.396 Q370.568,157.658 370.981,157.14 Q371.395,156.621 371.913,156.349 Q372.432,156.076 372.959,156.076 Q373.504,156.076 374.022,156.349 Q374.541,156.621 374.945,157.14 Q375.35,157.658 375.596,158.396 Q375.842,159.135 375.842,160.066 Q375.842,161.104 375.763,161.877 Q375.684,162.65 375.552,163.397 Q375.42,164.145 375.235,164.988 Q375.051,165.832 374.831,167.01 Q374.611,168.188 374.365,169.796 Q374.119,171.404 373.873,173.689 z M370.551,177.961 Q370.551,177.469 370.735,177.021 Q370.92,176.572 371.254,176.247 Q371.588,175.922 372.019,175.729 Q372.449,175.535 372.959,175.535 Q373.469,175.535 373.917,175.729 Q374.365,175.922 374.69,176.247 Q375.016,176.572 375.209,177.021 Q375.402,177.469 375.402,177.961 Q375.402,178.471 375.209,178.91 Q375.016,179.35 374.69,179.666 Q374.365,179.982 373.917,180.167 Q373.469,180.352 372.959,180.352 Q372.449,180.352 372.019,180.167 Q371.588,179.982 371.254,179.666 Q370.92,179.35 370.735,178.91 Q370.551,178.471 370.551,177.961 z" fill="#F37B00"/>
  </g>
</svg>
